PathFileType	4	(X/Y/Z)	C:/Users/beibeiliu/ov580/test_trc\sequence.38_training_dense_right.trc
DataRate	CameraRate	NumFrames	NumMarkers	Units	OrigDataRate	OrigDataStartFrame	OrigNumFrames
120	120	8	19	mm	120	38	75
Frame#	Time	ThumbCMC			ThumbMCP			ThumbIP			ThumbTip			IndexMCP			IndexPIP			IndexTip			MiddleMCP			MiddlePIP			MiddleTip			RingMCP			RingPIP			RingTip			PinkyMCP			PinkyPIP			PinkyTip			BackHand1			BackHand2			BackHand3	
		X0	Y0	Z0	X1	Y1	Z1	X2	Y2	Z2	X3	Y3	Z3	X4	Y4	Z4	X5	Y5	Z5	X6	Y6	Z6	X7	Y7	Z7	X8	Y8	Z8	X9	Y9	Z9	X10	Y10	Z10	X11	Y11	Z11	X12	Y12	Z12	X13	Y13	Z13	X14	Y14	Z14	X15	Y15	Z15	X16	Y16	Z16	X17	Y17	Z17	X18	Y18	Z18	
37	0.308333	118.51	129.623	115.074	119.167	161.064	107.253	110.178	184.539	94.9181	99.8044	200.835	90.5684	81.7742	159.109	67.4528	74.6537	184.939	73.0164	83.9638	198.19	98.5085	63.2164	162.115	75.1826	62.9314	183.877	94.5547	81.6058	168.772	117.742	52.0112	157.091	92.5395	66.0451	173.591	113.137	81.9244	155.863	122.391	43.4286	150.776	108.36	59.8392	164.417	122.819	78.6434	147.112	125.459	69.7499	108.339	103.398	79.6146	94.3373	119.013	96.6433	109.606	97.8942	
38	0.316667	116.533	129.471	112.3	116.676	156.558	96.1826	112.533	174.517	77.4528	108.569	189.456	68.654	80.5886	149.096	54.9466	79.5881	175.457	52.5963	86.5135	193.273	74.0147	61.0914	151.891	64.38	67.1326	180.129	69.6411	86.4294	174.545	97.5521	53.7681	158.552	79.0515	63.7393	177.082	92.415	82.0842	160.64	108.4	43.2534	152.444	96.6283	55.5633	171.511	104.648	75.4786	157.068	113.023	65.6448	112.81	106.584	76.3461	101.912	124.405	91.4509	105.809	102.232	
39	0.325	118.38	127.189	112.296	113.408	148.746	88.293	110.336	159.836	70.1823	111.027	172.425	57.2087	85.9996	128.275	55.5963	83.0156	153.544	41.2156	90.0367	179.7	54.299	65.5227	137.137	55.7184	68.7197	167.44	58.507	84.7405	167.204	86.7147	51.9048	148.582	72.4229	67.0705	168.334	79.8322	81.6057	155.054	100.962	45.3764	145.688	87.1281	58.0306	167.006	91.9717	75.0109	153.177	107.293	61.3444	109.91	110.31	72.079	104.355	135.001	91.542	101.096	108.281	
40	0.333333	118.121	120.176	111.641	116.12	139.235	89.6909	116.644	148.043	68.6787	114.69	155.599	50.5907	89.6234	113.093	54.9172	84.5695	136.566	39.5783	91.1643	166.128	47.6164	65.7986	121.518	57.5665	71.2443	148.463	49.2725	87.1234	159.017	77.9575	54.0102	132.739	72.2388	68.283	156.363	72.1129	81.0558	151.866	96.3438	43.8433	137.345	85.2913	58.6933	158.249	85.658	75.3431	150.483	103.427	65.4621	103.424	111.147	73.0171	99.9488	136.987	90.8508	97.463	114.872	
41	0.341667	119.322	117.039	115.104	122.356	134.768	92.0832	119.209	140.253	67.9565	120.184	148.959	47.4827	96.977	105.43	54.8852	92.0267	127.95	37.8411	96.6174	154.009	40.4032	73.5709	113.328	53.4108	73.9979	141.45	48.431	87.6862	152.795	77.1037	58.7297	125.915	66.8511	70.9408	147.415	66.6338	83.0099	143.921	95.7799	47.1951	127.514	83.9344	64.3819	148.725	80.3742	76.4957	146.234	99.4232	67.9967	96.9613	113.986	75.1895	98.9003	134.96	98.1759	92.6821	116.777	
42	0.35	119.941	121.562	116.891	121.153	139.597	94.6763	122.537	146.188	69.3284	122.819	153.923	48.7115	102.625	109.456	53.823	98.7215	127.335	38.923	97.6095	154.579	39.6951	79.9764	112.034	52.5445	78.09	137.655	45.2791	88.4958	154.389	73.8202	68.755	119.901	64.745	73.7279	146.054	66.4034	85.7849	145.361	90.0796	51.0299	121.277	78.9671	60.1307	144.868	75.6253	77.6716	143.487	97.6614	74.9099	94.132	111.479	78.0728	95.9299	133.408	103.404	94.4399	114.153	
43	0.358333	117.893	139.095	124.543	112.366	154.921	101.276	114.052	163.962	79.9266	113.342	171.366	61.3134	118.108	124.154	62.507	110.997	147.28	41.31	99.4307	167.892	42.2122	99.7577	119.575	57.0358	90.3943	147.269	46.6049	85.3692	160.582	74.4526	81.2641	119.458	61.8454	76.0795	147.938	67.2658	77.686	146.254	93.1082	62.8241	114.473	69.4011	65.1954	139.167	71.0072	73.9228	141.559	95.0656	89.6715	95.1264	107.727	88.3814	93.916	130.236	110.091	104.65	120.371	
44	0.366667	99.8654	151.316	132.632	92.4332	169.881	113.767	92.4585	181.192	92.8161	91.4244	190.465	72.9661	126.01	160.33	74.081	114.137	174.454	58.2815	87.9783	184.235	52.3208	115.417	148.215	64.5718	91.7188	162.704	55.0854	75.0193	164.659	82.3145	97.2068	136.723	62.455	77.2372	153.497	70.2321	74.4198	145.756	94.9277	89.4539	121.64	68.0753	72.1798	138.882	70.4184	76.2071	140.856	94.0566	111.194	107.304	105.168	99.2111	100.309	132.202	116.579	125.216	130.042	
